<svg xmlns="http://www.w3.org/2000/svg" xmlns:xlink="http://www.w3.org/1999/xlink" width="500" zoomAndPan="magnify" viewBox="0 0 375 374.999991" height="500" preserveAspectRatio="xMidYMid meet" version="1.0"><defs><g/><clipPath id="c67c772d16"><path d="M 104.789062 75.175781 L 191 75.175781 L 191 137 L 104.789062 137 Z M 104.789062 75.175781 " clip-rule="nonzero"/></clipPath><clipPath id="11670999a7"><path d="M 223 127 L 266.039062 127 L 266.039062 133 L 223 133 Z M 223 127 " clip-rule="nonzero"/></clipPath><clipPath id="aacabd381e"><path d="M 164 162 L 211 162 L 211 228.925781 L 164 228.925781 Z M 164 162 " clip-rule="nonzero"/></clipPath><clipPath id="30bcffe89b"><path d="M 164 162 L 218 162 L 218 228.925781 L 164 228.925781 Z M 164 162 " clip-rule="nonzero"/></clipPath></defs><rect x="-37.5" width="450" fill="#ffffff" y="-37.499999" height="449.999989" fill-opacity="1"/><rect x="-37.5" width="450" fill="#ffffff" y="-37.499999" height="449.999989" fill-opacity="1"/><rect x="-37.5" width="450" fill="#000000" y="-37.499999" height="449.999989" fill-opacity="1"/><g clip-path="url(#c67c772d16)"><path fill="#000aff" d="M 104.789062 75.214844 L 136.097656 128.632812 L 190.242188 136.636719 Z M 104.789062 75.214844 " fill-opacity="1" fill-rule="nonzero"/><path fill="#0057ff" d="M 104.789062 75.214844 L 122.445312 79.453125 L 190.242188 136.636719 Z M 104.789062 75.214844 " fill-opacity="1" fill-rule="nonzero"/></g><path fill="#0057ff" d="M 190.242188 136.636719 L 117.734375 125.105469 L 161.757812 161.582031 Z M 190.242188 136.636719 " fill-opacity="1" fill-rule="nonzero"/><path fill="#85ccff" d="M 190.242188 136.636719 L 189.652344 172.757812 L 161.757812 161.582031 Z M 190.242188 136.636719 " fill-opacity="1" fill-rule="nonzero"/><path fill="#0057ff" d="M 185.769531 133.339844 L 205.308594 122.515625 L 211.425781 131.222656 Z M 185.769531 133.339844 " fill-opacity="1" fill-rule="nonzero"/><path fill="#fafafa" d="M 205.308594 122.515625 L 222.84375 127.457031 L 211.074219 131.222656 Z M 205.308594 122.515625 " fill-opacity="1" fill-rule="nonzero"/><path fill="#000aff" d="M 185.769531 133.339844 L 211.191406 150.875 L 211.074219 131.222656 Z M 185.769531 133.339844 " fill-opacity="1" fill-rule="nonzero"/><g clip-path="url(#11670999a7)"><path fill="#000aff" d="M 223.078125 127.339844 L 266.039062 127.929688 L 225.785156 132.636719 Z M 223.078125 127.339844 " fill-opacity="1" fill-rule="nonzero"/></g><path fill="#fafafa" d="M 223.078125 127.339844 L 211.191406 150.875 L 225.785156 132.636719 Z M 223.078125 127.339844 " fill-opacity="1" fill-rule="nonzero"/><path fill="#85ccff" d="M 211.074219 131.222656 L 223.078125 127.339844 L 211.191406 150.875 Z M 211.074219 131.222656 " fill-opacity="1" fill-rule="nonzero"/><path fill="#000aff" d="M 190.242188 137.105469 L 189.652344 184.878906 L 198.480469 178.523438 Z M 190.242188 137.105469 " fill-opacity="1" fill-rule="nonzero"/><path fill="#0057ff" d="M 190.242188 136.636719 L 211.191406 150.875 L 198.480469 178.523438 Z M 190.242188 136.636719 " fill-opacity="1" fill-rule="nonzero"/><path fill="#0057ff" d="M 164.113281 162.523438 L 189.535156 218.0625 L 179.648438 221.117188 Z M 164.113281 162.523438 " fill-opacity="1" fill-rule="nonzero"/><path fill="#000aff" d="M 164.113281 162.523438 L 169.761719 200.175781 L 179.648438 221.117188 Z M 164.113281 162.523438 " fill-opacity="1" fill-rule="nonzero"/><g clip-path="url(#aacabd381e)"><path fill="#000aff" d="M 210.015625 228.882812 L 164.113281 162.523438 L 189.535156 218.0625 Z M 210.015625 228.882812 " fill-opacity="1" fill-rule="nonzero"/></g><path fill="#0057ff" d="M 164.113281 162.523438 L 189.886719 172.996094 L 189.886719 184.640625 Z M 164.113281 162.523438 " fill-opacity="1" fill-rule="nonzero"/><g clip-path="url(#30bcffe89b)"><path fill="#85ccff" d="M 164.113281 162.523438 L 210.015625 228.882812 L 217.546875 207.46875 Z M 164.113281 162.523438 " fill-opacity="1" fill-rule="nonzero"/></g><path fill="#0057ff" d="M 226.257812 207.46875 L 217.546875 207.46875 L 189.886719 184.640625 Z M 226.257812 207.46875 " fill-opacity="1" fill-rule="nonzero"/><path fill="#fafafa" d="M 198.480469 178.523438 L 226.257812 207.46875 L 189.886719 184.640625 Z M 198.480469 178.523438 " fill-opacity="1" fill-rule="nonzero"/><path fill="#100f0d" d="M 216.566406 134.082031 C 216.566406 134.824219 215.960938 135.429688 215.21875 135.429688 C 214.476562 135.429688 213.871094 134.824219 213.871094 134.082031 C 213.871094 133.339844 214.476562 132.738281 215.21875 132.738281 C 215.960938 132.738281 216.566406 133.339844 216.566406 134.082031 " fill-opacity="1" fill-rule="nonzero"/><g fill="#fafafa" fill-opacity="1"><g transform="translate(97.720048, 259.111771)"><g><path d="M 18.609375 -11.484375 C 19.828125 -11.085938 20.796875 -10.421875 21.515625 -9.484375 C 22.234375 -8.546875 22.59375 -7.382812 22.59375 -6 C 22.59375 -4.082031 21.851562 -2.601562 20.375 -1.5625 C 18.90625 -0.519531 16.757812 0 13.9375 0 L 2.96875 0 L 2.96875 -22.078125 L 13.3125 -22.078125 C 15.914062 -22.078125 17.921875 -21.566406 19.328125 -20.546875 C 20.742188 -19.523438 21.453125 -18.125 21.453125 -16.34375 C 21.453125 -15.25 21.195312 -14.28125 20.6875 -13.4375 C 20.1875 -12.59375 19.492188 -11.941406 18.609375 -11.484375 Z M 7.0625 -18.859375 L 7.0625 -12.78125 L 12.875 -12.78125 C 14.300781 -12.78125 15.394531 -13.035156 16.15625 -13.546875 C 16.925781 -14.066406 17.3125 -14.820312 17.3125 -15.8125 C 17.3125 -16.8125 16.925781 -17.566406 16.15625 -18.078125 C 15.394531 -18.597656 14.300781 -18.859375 12.875 -18.859375 Z M 13.6875 -3.21875 C 16.863281 -3.21875 18.453125 -4.28125 18.453125 -6.40625 C 18.453125 -8.53125 16.863281 -9.59375 13.6875 -9.59375 L 7.0625 -9.59375 L 7.0625 -3.21875 Z M 13.6875 -3.21875 "/></g></g></g><g fill="#fafafa" fill-opacity="1"><g transform="translate(127.713039, 259.111771)"><g><path d="M 2.96875 -22.078125 L 7.0625 -22.078125 L 7.0625 0 L 2.96875 0 Z M 2.96875 -22.078125 "/></g></g></g><g fill="#fafafa" fill-opacity="1"><g transform="translate(143.767517, 259.111771)"><g><path d="M 10.5625 -9.25 L 7.0625 -5.640625 L 7.0625 0 L 2.96875 0 L 2.96875 -22.078125 L 7.0625 -22.078125 L 7.0625 -10.75 L 17.984375 -22.078125 L 22.59375 -22.078125 L 13.3125 -12.203125 L 23.15625 0 L 18.359375 0 Z M 10.5625 -9.25 "/></g></g></g><g fill="#fafafa" fill-opacity="1"><g transform="translate(172.751377, 259.111771)"><g><path d="M 19.53125 -3.4375 L 19.53125 0 L 2.96875 0 L 2.96875 -22.078125 L 19.078125 -22.078125 L 19.078125 -18.640625 L 7.0625 -18.640625 L 7.0625 -12.90625 L 17.734375 -12.90625 L 17.734375 -9.53125 L 7.0625 -9.53125 L 7.0625 -3.4375 Z M 19.53125 -3.4375 "/></g></g></g><g fill="#fafafa" fill-opacity="1"><g transform="translate(199.874674, 259.111771)"><g><path d="M 7.4375 -18.609375 L 0.125 -18.609375 L 0.125 -22.078125 L 18.859375 -22.078125 L 18.859375 -18.609375 L 11.546875 -18.609375 L 11.546875 0 L 7.4375 0 Z M 7.4375 -18.609375 "/></g></g></g><g fill="#fafafa" fill-opacity="1"><g transform="translate(224.853589, 259.111771)"><g><path d="M 2.96875 -22.078125 L 7.0625 -22.078125 L 7.0625 0 L 2.96875 0 Z M 2.96875 -22.078125 "/></g></g></g><g fill="#fafafa" fill-opacity="1"><g transform="translate(240.908069, 259.111771)"><g><path d="M 17.375 -3.46875 L 17.375 0 L 1.109375 0 L 1.109375 -2.75 L 9.875 -11.078125 C 10.863281 -12.023438 11.53125 -12.847656 11.875 -13.546875 C 12.21875 -14.253906 12.390625 -14.953125 12.390625 -15.640625 C 12.390625 -16.671875 12.039062 -17.457031 11.34375 -18 C 10.65625 -18.550781 9.640625 -18.828125 8.296875 -18.828125 C 6.046875 -18.828125 4.320312 -18.0625 3.125 -16.53125 L 0.25 -18.734375 C 1.113281 -19.890625 2.273438 -20.785156 3.734375 -21.421875 C 5.203125 -22.066406 6.835938 -22.390625 8.640625 -22.390625 C 11.035156 -22.390625 12.945312 -21.820312 14.375 -20.6875 C 15.8125 -19.550781 16.53125 -18.007812 16.53125 -16.0625 C 16.53125 -14.863281 16.273438 -13.738281 15.765625 -12.6875 C 15.265625 -11.632812 14.300781 -10.429688 12.875 -9.078125 L 6.96875 -3.46875 Z M 17.375 -3.46875 "/></g></g></g><g fill="#fafafa" fill-opacity="1"><g transform="translate(265.256277, 259.111771)"><g><path d="M 9.015625 -22.078125 L 9.015625 0 L 4.921875 0 L 4.921875 -18.640625 L 0.25 -18.640625 L 0.25 -22.078125 Z M 9.015625 -22.078125 "/></g></g></g><g fill="#85ccff" fill-opacity="1"><g transform="translate(142.989582, 284.982022)"><g><path d="M 3.453125 0.109375 C 2.859375 0.109375 2.28125 0.0234375 1.71875 -0.140625 C 1.15625 -0.316406 0.710938 -0.546875 0.390625 -0.828125 L 0.890625 -1.953125 C 1.210938 -1.691406 1.601562 -1.484375 2.0625 -1.328125 C 2.53125 -1.171875 2.992188 -1.09375 3.453125 -1.09375 C 4.035156 -1.09375 4.46875 -1.179688 4.75 -1.359375 C 5.039062 -1.546875 5.1875 -1.796875 5.1875 -2.109375 C 5.1875 -2.328125 5.101562 -2.507812 4.9375 -2.65625 C 4.78125 -2.800781 4.578125 -2.910156 4.328125 -2.984375 C 4.085938 -3.066406 3.757812 -3.160156 3.34375 -3.265625 C 2.75 -3.410156 2.265625 -3.550781 1.890625 -3.6875 C 1.523438 -3.832031 1.210938 -4.054688 0.953125 -4.359375 C 0.691406 -4.660156 0.5625 -5.066406 0.5625 -5.578125 C 0.5625 -6.003906 0.675781 -6.394531 0.90625 -6.75 C 1.132812 -7.101562 1.484375 -7.382812 1.953125 -7.59375 C 2.429688 -7.800781 3.007812 -7.90625 3.6875 -7.90625 C 4.164062 -7.90625 4.632812 -7.84375 5.09375 -7.71875 C 5.550781 -7.601562 5.945312 -7.429688 6.28125 -7.203125 L 5.828125 -6.078125 C 5.484375 -6.285156 5.125 -6.441406 4.75 -6.546875 C 4.382812 -6.648438 4.03125 -6.703125 3.6875 -6.703125 C 3.113281 -6.703125 2.6875 -6.601562 2.40625 -6.40625 C 2.125 -6.21875 1.984375 -5.960938 1.984375 -5.640625 C 1.984375 -5.421875 2.0625 -5.238281 2.21875 -5.09375 C 2.382812 -4.957031 2.585938 -4.847656 2.828125 -4.765625 C 3.078125 -4.679688 3.414062 -4.585938 3.84375 -4.484375 C 4.414062 -4.347656 4.882812 -4.207031 5.25 -4.0625 C 5.625 -3.914062 5.941406 -3.691406 6.203125 -3.390625 C 6.472656 -3.097656 6.609375 -2.703125 6.609375 -2.203125 C 6.609375 -1.773438 6.488281 -1.382812 6.25 -1.03125 C 6.019531 -0.6875 5.664062 -0.410156 5.1875 -0.203125 C 4.71875 0.00390625 4.140625 0.109375 3.453125 0.109375 Z M 3.453125 0.109375 "/></g></g></g><g fill="#85ccff" fill-opacity="1"><g transform="translate(152.534376, 284.982022)"><g><path d="M 1.046875 -7.78125 L 2.484375 -7.78125 L 2.484375 0 L 1.046875 0 Z M 1.046875 -7.78125 "/></g></g></g><g fill="#85ccff" fill-opacity="1"><g transform="translate(158.631616, 284.982022)"><g><path d="M 7.96875 -7.78125 L 7.96875 0 L 6.78125 0 L 2.484375 -5.265625 L 2.484375 0 L 1.046875 0 L 1.046875 -7.78125 L 2.234375 -7.78125 L 6.53125 -2.515625 L 6.53125 -7.78125 Z M 7.96875 -7.78125 "/></g></g></g><g fill="#85ccff" fill-opacity="1"><g transform="translate(170.189345, 284.982022)"><g><path d="M 4.65625 0.109375 C 3.863281 0.109375 3.148438 -0.0625 2.515625 -0.40625 C 1.878906 -0.75 1.378906 -1.222656 1.015625 -1.828125 C 0.660156 -2.441406 0.484375 -3.128906 0.484375 -3.890625 C 0.484375 -4.660156 0.664062 -5.347656 1.03125 -5.953125 C 1.394531 -6.554688 1.894531 -7.03125 2.53125 -7.375 C 3.164062 -7.726562 3.875 -7.90625 4.65625 -7.90625 C 5.300781 -7.90625 5.882812 -7.789062 6.40625 -7.5625 C 6.9375 -7.34375 7.382812 -7.019531 7.75 -6.59375 L 6.8125 -5.71875 C 6.25 -6.320312 5.554688 -6.625 4.734375 -6.625 C 4.191406 -6.625 3.707031 -6.503906 3.28125 -6.265625 C 2.863281 -6.035156 2.535156 -5.710938 2.296875 -5.296875 C 2.066406 -4.890625 1.953125 -4.421875 1.953125 -3.890625 C 1.953125 -3.367188 2.066406 -2.898438 2.296875 -2.484375 C 2.535156 -2.066406 2.863281 -1.738281 3.28125 -1.5 C 3.707031 -1.269531 4.191406 -1.15625 4.734375 -1.15625 C 5.554688 -1.15625 6.25 -1.460938 6.8125 -2.078125 L 7.75 -1.1875 C 7.382812 -0.769531 6.9375 -0.445312 6.40625 -0.21875 C 5.875 0 5.289062 0.109375 4.65625 0.109375 Z M 4.65625 0.109375 "/></g></g></g><g fill="#85ccff" fill-opacity="1"><g transform="translate(180.824019, 284.982022)"><g><path d="M 6.890625 -1.21875 L 6.890625 0 L 1.046875 0 L 1.046875 -7.78125 L 6.734375 -7.78125 L 6.734375 -6.578125 L 2.484375 -6.578125 L 2.484375 -4.546875 L 6.25 -4.546875 L 6.25 -3.359375 L 2.484375 -3.359375 L 2.484375 -1.21875 Z M 6.890625 -1.21875 "/></g></g></g><g fill="#85ccff" fill-opacity="1"><g transform="translate(190.824781, 284.982022)"><g/></g></g><g fill="#85ccff" fill-opacity="1"><g transform="translate(196.443815, 284.982022)"><g><path d="M 6.125 -1.21875 L 6.125 0 L 0.390625 0 L 0.390625 -0.96875 L 3.484375 -3.90625 C 3.828125 -4.238281 4.0625 -4.53125 4.1875 -4.78125 C 4.3125 -5.03125 4.375 -5.273438 4.375 -5.515625 C 4.375 -5.878906 4.25 -6.15625 4 -6.34375 C 3.757812 -6.539062 3.398438 -6.640625 2.921875 -6.640625 C 2.128906 -6.640625 1.519531 -6.367188 1.09375 -5.828125 L 0.09375 -6.609375 C 0.394531 -7.015625 0.800781 -7.332031 1.3125 -7.5625 C 1.832031 -7.789062 2.410156 -7.90625 3.046875 -7.90625 C 3.890625 -7.90625 4.5625 -7.703125 5.0625 -7.296875 C 5.570312 -6.898438 5.828125 -6.351562 5.828125 -5.65625 C 5.828125 -5.238281 5.738281 -4.84375 5.5625 -4.46875 C 5.382812 -4.101562 5.039062 -3.679688 4.53125 -3.203125 L 2.453125 -1.21875 Z M 6.125 -1.21875 "/></g></g></g><g fill="#85ccff" fill-opacity="1"><g transform="translate(205.465925, 284.982022)"><g><path d="M 3.734375 0.109375 C 3.109375 0.109375 2.550781 -0.046875 2.0625 -0.359375 C 1.570312 -0.671875 1.1875 -1.128906 0.90625 -1.734375 C 0.625 -2.335938 0.484375 -3.054688 0.484375 -3.890625 C 0.484375 -4.722656 0.625 -5.441406 0.90625 -6.046875 C 1.1875 -6.648438 1.570312 -7.109375 2.0625 -7.421875 C 2.550781 -7.742188 3.109375 -7.90625 3.734375 -7.90625 C 4.359375 -7.90625 4.914062 -7.742188 5.40625 -7.421875 C 5.90625 -7.109375 6.296875 -6.648438 6.578125 -6.046875 C 6.859375 -5.441406 7 -4.722656 7 -3.890625 C 7 -3.054688 6.859375 -2.335938 6.578125 -1.734375 C 6.296875 -1.128906 5.90625 -0.671875 5.40625 -0.359375 C 4.914062 -0.046875 4.359375 0.109375 3.734375 0.109375 Z M 3.734375 -1.140625 C 4.296875 -1.140625 4.738281 -1.367188 5.0625 -1.828125 C 5.382812 -2.296875 5.546875 -2.984375 5.546875 -3.890625 C 5.546875 -4.804688 5.382812 -5.492188 5.0625 -5.953125 C 4.738281 -6.410156 4.296875 -6.640625 3.734375 -6.640625 C 3.191406 -6.640625 2.757812 -6.410156 2.4375 -5.953125 C 2.113281 -5.492188 1.953125 -4.804688 1.953125 -3.890625 C 1.953125 -2.984375 2.113281 -2.296875 2.4375 -1.828125 C 2.757812 -1.367188 3.191406 -1.140625 3.734375 -1.140625 Z M 3.734375 -1.140625 "/></g></g></g><g fill="#85ccff" fill-opacity="1"><g transform="translate(215.500058, 284.982022)"><g><path d="M 6.125 -1.21875 L 6.125 0 L 0.390625 0 L 0.390625 -0.96875 L 3.484375 -3.90625 C 3.828125 -4.238281 4.0625 -4.53125 4.1875 -4.78125 C 4.3125 -5.03125 4.375 -5.273438 4.375 -5.515625 C 4.375 -5.878906 4.25 -6.15625 4 -6.34375 C 3.757812 -6.539062 3.398438 -6.640625 2.921875 -6.640625 C 2.128906 -6.640625 1.519531 -6.367188 1.09375 -5.828125 L 0.09375 -6.609375 C 0.394531 -7.015625 0.800781 -7.332031 1.3125 -7.5625 C 1.832031 -7.789062 2.410156 -7.90625 3.046875 -7.90625 C 3.890625 -7.90625 4.5625 -7.703125 5.0625 -7.296875 C 5.570312 -6.898438 5.828125 -6.351562 5.828125 -5.65625 C 5.828125 -5.238281 5.738281 -4.84375 5.5625 -4.46875 C 5.382812 -4.101562 5.039062 -3.679688 4.53125 -3.203125 L 2.453125 -1.21875 Z M 6.125 -1.21875 "/></g></g></g><g fill="#85ccff" fill-opacity="1"><g transform="translate(224.522167, 284.982022)"><g><path d="M 3.734375 0.109375 C 3.109375 0.109375 2.550781 -0.046875 2.0625 -0.359375 C 1.570312 -0.671875 1.1875 -1.128906 0.90625 -1.734375 C 0.625 -2.335938 0.484375 -3.054688 0.484375 -3.890625 C 0.484375 -4.722656 0.625 -5.441406 0.90625 -6.046875 C 1.1875 -6.648438 1.570312 -7.109375 2.0625 -7.421875 C 2.550781 -7.742188 3.109375 -7.90625 3.734375 -7.90625 C 4.359375 -7.90625 4.914062 -7.742188 5.40625 -7.421875 C 5.90625 -7.109375 6.296875 -6.648438 6.578125 -6.046875 C 6.859375 -5.441406 7 -4.722656 7 -3.890625 C 7 -3.054688 6.859375 -2.335938 6.578125 -1.734375 C 6.296875 -1.128906 5.90625 -0.671875 5.40625 -0.359375 C 4.914062 -0.046875 4.359375 0.109375 3.734375 0.109375 Z M 3.734375 -1.140625 C 4.296875 -1.140625 4.738281 -1.367188 5.0625 -1.828125 C 5.382812 -2.296875 5.546875 -2.984375 5.546875 -3.890625 C 5.546875 -4.804688 5.382812 -5.492188 5.0625 -5.953125 C 4.738281 -6.410156 4.296875 -6.640625 3.734375 -6.640625 C 3.191406 -6.640625 2.757812 -6.410156 2.4375 -5.953125 C 2.113281 -5.492188 1.953125 -4.804688 1.953125 -3.890625 C 1.953125 -2.984375 2.113281 -2.296875 2.4375 -1.828125 C 2.757812 -1.367188 3.191406 -1.140625 3.734375 -1.140625 Z M 3.734375 -1.140625 "/></g></g></g></svg>